<svg version="1.1" id="Layer_1" xmlns="http://www.w3.org/2000/svg" xmlns:xlink="http://www.w3.org/1999/xlink" x="0px" y="0px"
	 width="100%" viewBox="0 0 960 960" enable-background="new 0 0 960 960" xml:space="preserve">
<path fill="#010101" opacity="1.000000" stroke="none" 
	d="
M647.000000,961.000000 
	C431.333344,961.000000 216.166672,961.000000 1.000000,961.000000 
	C1.000000,641.000000 1.000000,321.000000 1.000000,1.000000 
	C321.000000,1.000000 641.000000,1.000000 961.000000,1.000000 
	C961.000000,321.000000 961.000000,641.000000 961.000000,961.000000 
	C856.500000,961.000000 752.000000,961.000000 647.000000,961.000000 
M503.928894,362.953308 
	C500.895782,368.121826 497.775848,373.242828 494.897949,378.496429 
	C494.274109,379.635223 493.979614,381.474243 494.451233,382.609375 
	C497.632324,390.265442 501.060547,397.818878 504.680664,406.115265 
	C505.630798,408.768860 506.580933,411.422485 507.714600,414.588623 
	C508.677460,413.059753 509.313568,412.113068 509.887115,411.129913 
	C550.886292,340.854675 591.901794,270.588898 632.789856,200.249054 
	C634.280701,197.684418 635.761475,196.948410 638.559753,196.955399 
	C668.559082,197.030319 698.558777,196.968918 728.558411,196.945114 
	C729.979431,196.944000 731.400452,196.944992 733.469299,196.944992 
	C732.601807,198.780182 732.139709,199.985672 731.496399,201.085144 
	C719.479370,221.622147 707.440125,242.146118 695.406860,262.673584 
	C668.479675,308.608643 641.568665,354.553101 614.622498,400.477020 
	C584.054016,452.574371 553.426758,504.637360 522.955688,556.791565 
	C521.540466,559.213989 520.861694,562.364258 520.768677,565.205872 
	C520.488525,573.766479 520.667725,582.342102 520.667725,591.344788 
	C512.096680,590.849915 504.310211,590.189697 496.511841,589.987000 
	C464.712646,589.160217 432.912842,588.260498 401.107300,587.804688 
	C377.048737,587.459839 353.257507,589.875305 329.843079,595.870972 
	C275.001495,609.914185 231.534134,639.655701 201.576324,688.170105 
	C190.046036,706.842529 182.590988,727.056213 179.756760,748.965576 
	C180.795410,748.010071 181.467194,746.878845 181.904587,745.663391 
	C196.039352,706.382874 220.764359,675.422485 255.654190,652.699829 
	C299.267456,624.295776 347.706604,614.654236 399.351318,617.659790 
	C399.346222,624.825867 399.341125,631.991943 399.186981,640.064392 
	C399.186981,673.836365 399.186981,707.608337 399.186981,741.546875 
	C449.525421,741.546875 499.418854,741.546875 549.749023,741.546875 
	C549.749023,700.877258 549.749023,660.470398 549.749023,619.914551 
	C551.437012,619.664795 552.719116,619.397217 554.014343,619.294922 
	C582.075684,617.079163 608.555664,609.399536 633.475708,596.325439 
	C676.562012,573.720581 706.790894,540.149353 721.305725,493.217407 
	C721.882996,491.350739 721.931396,489.320465 722.226196,487.366455 
	C686.156006,557.871765 624.155945,584.111328 549.682861,591.218079 
	C549.682861,585.283691 549.299744,579.955566 549.811157,574.714722 
	C550.181519,570.919067 551.086304,566.884827 552.886414,563.573242 
	C558.602356,553.057678 564.826599,542.817505 570.895264,532.494934 
	C601.749573,480.012756 632.684570,427.577820 663.461609,375.050385 
	C698.865723,314.625916 734.142212,254.126633 769.452209,193.647018 
	C774.283386,185.371994 778.988098,177.023193 784.088013,168.120895 
	C781.219727,168.120895 779.256897,168.120605 777.294067,168.120941 
	C725.308228,168.129593 673.322388,168.119064 621.336792,168.236313 
	C619.712830,168.239975 617.396301,169.112045 616.589661,170.351685 
	C613.054565,175.784317 609.967224,181.507629 606.699158,187.114838 
	C583.076599,227.646225 559.441040,268.170013 535.827881,308.706940 
	C525.364807,326.668884 514.944519,344.655762 503.928894,362.953308 
M230.432129,284.140991 
	C268.302643,348.530609 306.194183,412.907898 343.964081,477.356476 
	C345.422485,479.844971 347.041748,480.187256 349.518127,480.196533 
	C401.833740,480.391937 454.149078,480.654236 506.464478,480.901886 
	C508.337036,480.910736 510.209625,480.902985 512.876587,480.902985 
	C503.845001,465.438843 495.365875,450.965698 486.929779,436.467529 
	C461.494629,392.754913 436.262329,348.922577 410.530975,305.385132 
	C403.365509,293.261108 395.812592,281.061981 386.584747,270.518860 
	C360.454437,240.664093 327.128723,224.541275 287.290833,223.011688 
	C267.985748,222.270447 248.644470,222.437286 229.318878,222.279572 
	C217.905151,222.186417 206.490051,222.262543 193.983276,222.262543 
	C206.321640,243.243942 218.169952,263.392029 230.432129,284.140991 
M456.471771,512.270752 
	C425.607056,511.590088 394.742340,510.909424 363.664734,510.224060 
	C363.819458,511.023926 363.787262,511.555023 364.013977,511.929260 
	C374.519196,529.273621 385.010651,546.626770 395.657654,563.883850 
	C396.337738,564.986206 398.233459,565.911133 399.581238,565.935242 
	C407.903290,566.084106 416.233917,566.063660 424.552490,565.804565 
	C426.009674,565.759094 428.044312,564.683655 428.762970,563.465027 
	C438.048065,547.720154 447.157867,531.871643 456.251099,516.014404 
	C456.829651,515.005493 456.907166,513.709351 456.471771,512.270752 
z"/>
<path fill="#FBFBFB" opacity="1.000000" stroke="none" 
	d="
M399.027557,616.732056 
	C347.706604,614.654236 299.267456,624.295776 255.654190,652.699829 
	C220.764359,675.422485 196.039352,706.382874 181.904587,745.663391 
	C181.467194,746.878845 180.795410,748.010071 179.756760,748.965576 
	C182.590988,727.056213 190.046036,706.842529 201.576324,688.170105 
	C231.534134,639.655701 275.001495,609.914185 329.843079,595.870972 
	C353.257507,589.875305 377.048737,587.459839 401.107300,587.804688 
	C432.912842,588.260498 464.712646,589.160217 496.511841,589.987000 
	C504.310211,590.189697 512.096680,590.849915 520.667725,591.344788 
	C520.667725,582.342102 520.488525,573.766479 520.768677,565.205872 
	C520.861694,562.364258 521.540466,559.213989 522.955688,556.791565 
	C553.426758,504.637360 584.054016,452.574371 614.622498,400.477020 
	C641.568665,354.553101 668.479675,308.608643 695.406860,262.673584 
	C707.440125,242.146118 719.479370,221.622147 731.496399,201.085144 
	C732.139709,199.985672 732.601807,198.780182 733.469299,196.944992 
	C731.400452,196.944992 729.979431,196.944000 728.558411,196.945114 
	C698.558777,196.968918 668.559082,197.030319 638.559753,196.955399 
	C635.761475,196.948410 634.280701,197.684418 632.789856,200.249054 
	C591.901794,270.588898 550.886292,340.854675 509.887115,411.129913 
	C509.313568,412.113068 508.677460,413.059753 507.714600,414.588623 
	C506.580933,411.422485 505.630798,408.768860 504.702118,405.287170 
	C504.650665,390.516479 504.577728,376.573883 504.504822,362.631317 
	C514.944519,344.655762 525.364807,326.668884 535.827881,308.706940 
	C559.441040,268.170013 583.076599,227.646225 606.699158,187.114838 
	C609.967224,181.507629 613.054565,175.784317 616.589661,170.351685 
	C617.396301,169.112045 619.712830,168.239975 621.336792,168.236313 
	C673.322388,168.119064 725.308228,168.129593 777.294067,168.120941 
	C779.256897,168.120605 781.219727,168.120895 784.088013,168.120895 
	C778.988098,177.023193 774.283386,185.371994 769.452209,193.647018 
	C734.142212,254.126633 698.865723,314.625916 663.461609,375.050385 
	C632.684570,427.577820 601.749573,480.012756 570.895264,532.494934 
	C564.826599,542.817505 558.602356,553.057678 552.886414,563.573242 
	C551.086304,566.884827 550.181519,570.919067 549.811157,574.714722 
	C549.299744,579.955566 549.682861,585.283691 549.682861,591.218079 
	C624.155945,584.111328 686.156006,557.871765 722.226196,487.366455 
	C721.931396,489.320465 721.882996,491.350739 721.305725,493.217407 
	C706.790894,540.149353 676.562012,573.720581 633.475708,596.325439 
	C608.555664,609.399536 582.075684,617.079163 554.014343,619.294922 
	C552.719116,619.397217 551.437012,619.664795 549.749023,619.914551 
	C549.749023,660.470398 549.749023,700.877258 549.749023,741.546875 
	C499.418854,741.546875 449.525421,741.546875 399.186981,741.546875 
	C399.186981,707.608337 399.186981,673.836365 399.704224,639.603760 
	C409.213837,639.431458 418.206268,639.719666 427.337280,640.404053 
	C427.475861,664.712952 427.475861,688.625671 427.475861,712.515137 
	C458.990936,712.515137 489.682159,712.515137 520.343018,712.515137 
	C520.343018,681.755310 520.343018,651.366211 520.343018,620.776733 
	C519.179626,620.639038 518.383728,620.484863 517.583618,620.459106 
	C499.470520,619.876831 481.356140,619.333618 463.243774,618.728882 
	C451.286530,618.329712 439.332092,617.845764 426.887543,617.336426 
	C417.274963,617.092773 408.151276,616.912415 399.027557,616.732056 
z"/>
<path fill="#FBFBFB" opacity="1.000000" stroke="none" 
	d="
M230.225189,283.840546 
	C218.169952,263.392029 206.321640,243.243942 193.983276,222.262543 
	C206.490051,222.262543 217.905151,222.186417 229.318878,222.279572 
	C248.644470,222.437286 267.985748,222.270447 287.290833,223.011688 
	C327.128723,224.541275 360.454437,240.664093 386.584747,270.518860 
	C395.812592,281.061981 403.365509,293.261108 410.530975,305.385132 
	C436.262329,348.922577 461.494629,392.754913 486.929779,436.467529 
	C495.365875,450.965698 503.845001,465.438843 512.876587,480.902985 
	C510.209625,480.902985 508.337036,480.910736 506.464478,480.901886 
	C454.149078,480.654236 401.833740,480.391937 349.518127,480.196533 
	C347.041748,480.187256 345.422485,479.844971 343.964081,477.356476 
	C306.194183,412.907898 268.302643,348.530609 230.225189,283.840546 
M422.568359,383.979340 
	C408.370575,359.720123 394.141022,335.479431 379.983429,311.196777 
	C364.269348,284.244385 342.386108,264.615723 312.103119,255.852280 
	C301.846893,252.884277 290.924255,251.698914 280.218445,250.945480 
	C268.587463,250.126938 256.854370,250.759781 244.809021,250.759781 
	C245.636703,252.361084 246.249527,253.703934 246.996216,254.967651 
	C257.997467,273.586731 269.034760,292.184509 280.027771,310.808441 
	C307.165344,356.783813 334.316101,402.751587 361.329315,448.799957 
	C362.878815,451.441315 364.646545,451.913422 367.300476,451.912537 
	C395.953888,451.902954 424.607330,451.969604 453.260742,452.014313 
	C455.862518,452.018372 458.464294,452.014862 462.169159,452.014862 
	C448.776337,429.025940 435.843842,406.827179 422.568359,383.979340 
z"/>
<path fill="#FBFBFB" opacity="1.000000" stroke="none" 
	d="
M456.844788,512.408813 
	C456.907166,513.709351 456.829651,515.005493 456.251099,516.014404 
	C447.157867,531.871643 438.048065,547.720154 428.762970,563.465027 
	C428.044312,564.683655 426.009674,565.759094 424.552490,565.804565 
	C416.233917,566.063660 407.903290,566.084106 399.581238,565.935242 
	C398.233459,565.911133 396.337738,564.986206 395.657654,563.883850 
	C385.010651,546.626770 374.519196,529.273621 364.013977,511.929260 
	C363.787262,511.555023 363.819458,511.023926 363.664734,510.224060 
	C394.742340,510.909424 425.607056,511.590088 456.844788,512.408813 
z"/>
<path fill="#A2A2A2" opacity="1.000000" stroke="none" 
	d="
M427.198669,640.007935 
	C418.206268,639.719666 409.213837,639.431458 399.778717,639.150635 
	C399.341125,631.991943 399.346222,624.825867 399.189453,617.195923 
	C408.151276,616.912415 417.274963,617.092773 426.919312,617.778320 
	C427.359497,625.524963 427.279083,632.766418 427.198669,640.007935 
z"/>
<path fill="#939393" opacity="1.000000" stroke="none" 
	d="
M504.216858,362.792297 
	C504.577728,376.573883 504.650665,390.516479 504.566162,404.932281 
	C501.060547,397.818878 497.632324,390.265442 494.451233,382.609375 
	C493.979614,381.474243 494.274109,379.635223 494.897949,378.496429 
	C497.775848,373.242828 500.895782,368.121826 504.216858,362.792297 
z"/>
<path fill="#030303" opacity="1.000000" stroke="none" 
	d="
M427.337280,640.404053 
	C427.279083,632.766418 427.359497,625.524963 427.408173,617.841614 
	C439.332092,617.845764 451.286530,618.329712 463.243774,618.728882 
	C481.356140,619.333618 499.470520,619.876831 517.583618,620.459106 
	C518.383728,620.484863 519.179626,620.639038 520.343018,620.776733 
	C520.343018,651.366211 520.343018,681.755310 520.343018,712.515137 
	C489.682159,712.515137 458.990936,712.515137 427.475861,712.515137 
	C427.475861,688.625671 427.475861,664.712952 427.337280,640.404053 
z"/>
<path fill="#020202" opacity="1.000000" stroke="none" 
	d="
M422.739868,384.303894 
	C435.843842,406.827179 448.776337,429.025940 462.169159,452.014862 
	C458.464294,452.014862 455.862518,452.018372 453.260742,452.014313 
	C424.607330,451.969604 395.953888,451.902954 367.300476,451.912537 
	C364.646545,451.913422 362.878815,451.441315 361.329315,448.799957 
	C334.316101,402.751587 307.165344,356.783813 280.027771,310.808441 
	C269.034760,292.184509 257.997467,273.586731 246.996216,254.967651 
	C246.249527,253.703934 245.636703,252.361084 244.809021,250.759781 
	C256.854370,250.759781 268.587463,250.126938 280.218445,250.945480 
	C290.924255,251.698914 301.846893,252.884277 312.103119,255.852280 
	C342.386108,264.615723 364.269348,284.244385 379.983429,311.196777 
	C394.141022,335.479431 408.370575,359.720123 422.739868,384.303894 
z"/>
</svg>